<?xml version="1.0" encoding="UTF-8"?>
<svg id="Layer_1" xmlns="http://www.w3.org/2000/svg" version="1.1" viewBox="0 0 32 22">
  <!-- Generator: Adobe Illustrator 29.0.1, SVG Export Plug-In . SVG Version: 2.1.0 Build 192)  -->
  <defs>
    <style>
      .st0 {
        fill: #9eb6b9;
      }
    </style>
  </defs>
  <path class="st0" d="M31.8,7.5l-3.2-6.4c-.5-1-1.7-1.4-2.7-.9h0s-3.1,1.6-3.1,1.6l-6.5-1.7c-.2,0-.3,0-.5,0l-6.5,1.7L6.1.2c-1-.5-2.2,0-2.7.9,0,0,0,0,0,0L.2,7.5c-.5,1,0,2.2.9,2.7,0,0,0,0,0,0l3.4,1.7,6.9,5c.1,0,.2.1.3.2l8,2c.3,0,.7,0,1-.3l6.9-6.9,3.3-1.7c1-.5,1.4-1.7.9-2.7h0ZM24.9,11.6l-4.3-3.4c-.4-.3-1-.3-1.3,0-2.2,2.2-4.7,2-6.3,1l5.4-5.2h4l3.4,6.8-.9.9ZM5.2,2l2.6,1.3-3.2,6.4-2.6-1.3L5.2,2ZM19.7,16.9l-7.3-1.8-6.2-4.4,3.5-7,6.2-1.6,1.2.3-5.6,5.5h0c-.8.8-.8,2.1,0,2.8.1.1.2.2.3.3,2.6,1.6,5.7,1.4,8.1-.6l3.5,2.8-3.8,3.8ZM27.4,9.6l-3.2-6.4,2.6-1.3,3.2,6.4-2.6,1.3ZM16.5,21.2c-.1.4-.5.8-1,.8,0,0-.2,0-.2,0l-5.2-1.3c-.1,0-.2,0-.3-.2l-3.3-2.4c-.4-.3-.5-1-.2-1.4.3-.4.9-.5,1.3-.2l3.1,2.2,5,1.3c.5.1.9.7.7,1.2h0Z"/>
</svg>