<?xml version="1.0" encoding="UTF-8"?>
<svg id="Layer_1" xmlns="http://www.w3.org/2000/svg" version="1.1" viewBox="0 0 30 25">
  <!-- Generator: Adobe Illustrator 29.0.1, SVG Export Plug-In . SVG Version: 2.1.0 Build 192)  -->
  <defs>
    <style>
      .st0 {
        fill: #9eb6b9;
      }
    </style>
  </defs>
  <path class="st0" d="M29,23h-2v-9l.3.3c.4.4,1,.4,1.4,0s.4-1,0-1.4L16.4.6c-.8-.8-2-.8-2.8,0L1.3,12.9c-.4.4-.4,1,0,1.4s1,.4,1.4,0l.3-.3v9H1c-.6,0-1,.4-1,1s.4,1,1,1h28c.6,0,1-.4,1-1s-.4-1-1-1ZM5,12L15,2l10,10v11h-6v-7c0-.6-.4-1-1-1h-6c-.6,0-1,.4-1,1v7h-6v-11ZM17,23h-4v-6h4v6Z"/>
</svg>