<?xml version="1.0" encoding="UTF-8"?>
<svg id="Layer_1" xmlns="http://www.w3.org/2000/svg" version="1.1" viewBox="0 0 29 25">
  <!-- Generator: Adobe Illustrator 29.0.1, SVG Export Plug-In . SVG Version: 2.1.0 Build 192)  -->
  <defs>
    <style>
      .st0 {
        fill: #9eb6b9;
      }
    </style>
  </defs>
  <path class="st0" d="M28,12c0-3.3-2.7-6-6-6h-5c-.4,0-6.7-.5-12.7-5.5C3.4-.2,2.2-.1,1.5.7c-.3.4-.5.8-.5,1.3v20c0,1.1.9,2,2,2,.5,0,.9-.2,1.3-.5,4.7-4,9.6-5.1,11.7-5.4v4c0,.7.3,1.3.9,1.7l1.4.9c.9.6,2.2.4,2.8-.6.1-.2.2-.4.3-.6l1.5-5.5c3-.4,5.2-2.9,5.2-6ZM3,22V2h0c5.4,4.5,10.8,5.6,13,5.9v8.2c-2.2.3-7.6,1.4-13,5.9ZM19.4,23h0s-1.4-.9-1.4-.9v-4.1h2.7l-1.3,5ZM22,16h-4V8h4c2.2,0,4,1.8,4,4s-1.8,4-4,4Z"/>
</svg>