<svg width="750" height="96" viewBox="0 0 725 70" fill="none" xmlns="http://www.w3.org/2000/svg">
<path d="M67.6406 63.7969C67.6406 64.6719 67.4688 65.4844 67.125 66.2344C66.8125 66.9844 66.375 67.6406 65.8125 68.2031C65.2812 68.7344 64.6406 69.1562 63.8906 69.4688C63.1406 69.7812 62.3438 69.9375 61.5 69.9375C60.75 69.9375 59.9844 69.7969 59.2031 69.5156C58.4531 69.2344 57.7812 68.7812 57.1875 68.1562L12.6562 21.6562V69H0.46875V6.98438C0.46875 5.73437 0.8125 4.60937 1.5 3.60938C2.21875 2.57812 3.125 1.8125 4.21875 1.3125C5.375 0.84375 6.5625 0.734375 7.78125 0.984375C9 1.20313 10.0469 1.76563 10.9219 2.67188L55.4531 49.125V1.78125H67.6406V63.7969ZM137.109 41.5312H98.625V29.25H137.109V41.5312ZM142.594 69H98.625C96.9375 69 95.0938 68.7031 93.0938 68.1094C91.0938 67.5156 89.2344 66.5469 87.5156 65.2031C85.8281 63.8281 84.4062 62.0625 83.25 59.9062C82.125 57.7188 81.5625 55.0469 81.5625 51.8906V7.92188C81.5625 7.07812 81.7188 6.28125 82.0312 5.53125C82.3438 4.78125 82.7656 4.125 83.2969 3.5625C83.8594 3 84.5156 2.5625 85.2656 2.25C86.0156 1.9375 86.8281 1.78125 87.7031 1.78125H142.594V13.9688H93.75V51.8906C93.75 53.4844 94.1719 54.7031 95.0156 55.5469C95.8594 56.3906 97.0938 56.8125 98.7188 56.8125H142.594V69ZM220.266 62.8594C220.266 63.7344 220.109 64.5469 219.797 65.2969C219.484 66.0469 219.047 66.7031 218.484 67.2656C217.922 67.7969 217.266 68.2188 216.516 68.5312C215.766 68.8438 214.969 69 214.125 69H186.656C184.062 69 181.438 68.7188 178.781 68.1562C176.125 67.5938 173.547 66.7344 171.047 65.5781C168.578 64.3906 166.25 62.8906 164.062 61.0781C161.875 59.2656 159.953 57.125 158.297 54.6562C156.672 52.1562 155.391 49.3125 154.453 46.125C153.516 42.9062 153.047 39.3281 153.047 35.3906V1.78125H165.234V35.3906C165.234 38.8281 165.703 41.7344 166.641 44.1094C167.609 46.4844 168.828 48.4688 170.297 50.0625C171.766 51.6562 173.375 52.9062 175.125 53.8125C176.875 54.7188 178.531 55.3906 180.094 55.8281C181.688 56.2656 183.078 56.5469 184.266 56.6719C185.484 56.7656 186.281 56.8125 186.656 56.8125H208.078V1.78125H220.266V62.8594ZM301.641 24.375C301.641 27.1562 301.297 29.6406 300.609 31.8281C299.922 34.0156 298.984 35.9531 297.797 37.6406C296.641 39.2969 295.297 40.7188 293.766 41.9062C292.234 43.0938 290.625 44.0781 288.938 44.8594C287.281 45.6094 285.594 46.1562 283.875 46.5C282.188 46.8438 280.594 47.0156 279.094 47.0156L304.547 69H285.703L260.297 47.0156H251.531V34.8281H279.094C280.625 34.7031 282.016 34.3906 283.266 33.8906C284.547 33.3594 285.641 32.6562 286.547 31.7812C287.484 30.9062 288.203 29.8594 288.703 28.6406C289.203 27.3906 289.453 25.9688 289.453 24.375V16.6875C289.453 16 289.359 15.4844 289.172 15.1406C289.016 14.7656 288.797 14.5 288.516 14.3438C288.266 14.1562 287.984 14.0469 287.672 14.0156C287.391 13.9844 287.125 13.9688 286.875 13.9688H246.656V69H234.469V7.92188C234.469 7.07812 234.625 6.28125 234.938 5.53125C235.25 4.78125 235.672 4.125 236.203 3.5625C236.766 3 237.422 2.5625 238.172 2.25C238.922 1.9375 239.734 1.78125 240.609 1.78125H286.875C289.594 1.78125 291.891 2.28125 293.766 3.28125C295.641 4.25 297.156 5.48438 298.312 6.98438C299.5 8.45312 300.344 10.0469 300.844 11.7656C301.375 13.4844 301.641 15.0938 301.641 16.5938V24.375ZM384.422 41.8125C384.422 45.9062 383.719 49.6719 382.312 53.1094C380.906 56.5469 378.953 59.5156 376.453 62.0156C373.953 64.5156 370.984 66.4688 367.547 67.875C364.141 69.25 360.422 69.9375 356.391 69.9375H339.891C335.859 69.9375 332.125 69.25 328.688 67.875C325.25 66.4688 322.281 64.5156 319.781 62.0156C317.281 59.5156 315.312 56.5469 313.875 53.1094C312.469 49.6719 311.766 45.9062 311.766 41.8125V28.9688C311.766 24.9062 312.469 21.1562 313.875 17.7188C315.312 14.25 317.281 11.2813 319.781 8.8125C322.281 6.3125 325.25 4.35938 328.688 2.95312C332.125 1.54688 335.859 0.84375 339.891 0.84375H356.391C360.422 0.84375 364.141 1.54688 367.547 2.95312C370.984 4.35938 373.953 6.3125 376.453 8.8125C378.953 11.2813 380.906 14.25 382.312 17.7188C383.719 21.1562 384.422 24.9062 384.422 28.9688V41.8125ZM372.234 28.9688C372.234 26.5625 371.844 24.3906 371.062 22.4531C370.312 20.4844 369.234 18.8125 367.828 17.4375C366.453 16.0312 364.781 14.9531 362.812 14.2031C360.875 13.4219 358.734 13.0312 356.391 13.0312H339.891C337.516 13.0312 335.344 13.4219 333.375 14.2031C331.438 14.9531 329.766 16.0312 328.359 17.4375C326.953 18.8125 325.859 20.4844 325.078 22.4531C324.328 24.3906 323.953 26.5625 323.953 28.9688V41.8125C323.953 44.2188 324.328 46.4062 325.078 48.375C325.859 50.3125 326.953 51.9844 328.359 53.3906C329.766 54.7656 331.438 55.8438 333.375 56.625C335.344 57.375 337.516 57.75 339.891 57.75H356.297C358.672 57.75 360.828 57.375 362.766 56.625C364.734 55.8438 366.422 54.7656 367.828 53.3906C369.234 51.9844 370.312 50.3125 371.062 48.375C371.844 46.4062 372.234 44.2188 372.234 41.8125V28.9688ZM458.203 69H402.609C401.734 69 400.922 68.8438 400.172 68.5312C399.422 68.2188 398.766 67.7969 398.203 67.2656C397.672 66.7031 397.25 66.0469 396.938 65.2969C396.625 64.5469 396.469 63.7344 396.469 62.8594V1.78125H408.656V56.8125H458.203V69ZM479.438 69H467.25V1.78125H479.438V69ZM560.859 63.7969C560.859 64.6719 560.688 65.4844 560.344 66.2344C560.031 66.9844 559.594 67.6406 559.031 68.2031C558.5 68.7344 557.859 69.1562 557.109 69.4688C556.359 69.7812 555.562 69.9375 554.719 69.9375C553.969 69.9375 553.203 69.7969 552.422 69.5156C551.672 69.2344 551 68.7812 550.406 68.1562L505.875 21.6562V69H493.688V6.98438C493.688 5.73437 494.031 4.60937 494.719 3.60938C495.438 2.57812 496.344 1.8125 497.438 1.3125C498.594 0.84375 499.781 0.734375 501 0.984375C502.219 1.20313 503.266 1.76563 504.141 2.67188L548.672 49.125V1.78125H560.859V63.7969ZM641.391 62.8594C641.391 63.7344 641.234 64.5469 640.922 65.2969C640.609 66.0469 640.172 66.7031 639.609 67.2656C639.078 67.7969 638.438 68.2188 637.688 68.5312C636.938 68.8438 636.125 69 635.25 69H591.281C590.156 69 588.938 68.875 587.625 68.625C586.344 68.3438 585.062 67.9219 583.781 67.3594C582.531 66.7969 581.328 66.0781 580.172 65.2031C579.016 64.2969 577.984 63.2188 577.078 61.9688C576.203 60.6875 575.5 59.2188 574.969 57.5625C574.438 55.875 574.172 53.9844 574.172 51.8906V18.8906C574.172 17.7656 574.297 16.5625 574.547 15.2812C574.828 13.9688 575.25 12.6875 575.812 11.4375C576.375 10.1563 577.109 8.9375 578.016 7.78125C578.922 6.625 580 5.60938 581.25 4.73438C582.531 3.82813 584 3.10937 585.656 2.57812C587.312 2.04688 589.188 1.78125 591.281 1.78125H640.828V13.9688H591.281C589.688 13.9688 588.469 14.3906 587.625 15.2344C586.781 16.0781 586.359 17.3281 586.359 18.9844V51.8906C586.359 53.4531 586.781 54.6719 587.625 55.5469C588.5 56.3906 589.719 56.8125 591.281 56.8125H629.203V41.5312H596.766V29.25H635.25C636.125 29.25 636.938 29.4219 637.688 29.7656C638.438 30.0781 639.078 30.5156 639.609 31.0781C640.172 31.6406 640.609 32.2969 640.922 33.0469C641.234 33.7656 641.391 34.5469 641.391 35.3906V62.8594ZM724.641 41.8125C724.641 45.9062 723.938 49.6719 722.531 53.1094C721.125 56.5469 719.172 59.5156 716.672 62.0156C714.172 64.5156 711.203 66.4688 707.766 67.875C704.359 69.25 700.641 69.9375 696.609 69.9375H680.109C676.078 69.9375 672.344 69.25 668.906 67.875C665.469 66.4688 662.5 64.5156 660 62.0156C657.5 59.5156 655.531 56.5469 654.094 53.1094C652.688 49.6719 651.984 45.9062 651.984 41.8125V28.9688C651.984 24.9062 652.688 21.1562 654.094 17.7188C655.531 14.25 657.5 11.2813 660 8.8125C662.5 6.3125 665.469 4.35938 668.906 2.95312C672.344 1.54688 676.078 0.84375 680.109 0.84375H696.609C700.641 0.84375 704.359 1.54688 707.766 2.95312C711.203 4.35938 714.172 6.3125 716.672 8.8125C719.172 11.2813 721.125 14.25 722.531 17.7188C723.938 21.1562 724.641 24.9062 724.641 28.9688V41.8125ZM712.453 28.9688C712.453 26.5625 712.062 24.3906 711.281 22.4531C710.531 20.4844 709.453 18.8125 708.047 17.4375C706.672 16.0312 705 14.9531 703.031 14.2031C701.094 13.4219 698.953 13.0312 696.609 13.0312H680.109C677.734 13.0312 675.562 13.4219 673.594 14.2031C671.656 14.9531 669.984 16.0312 668.578 17.4375C667.172 18.8125 666.078 20.4844 665.297 22.4531C664.547 24.3906 664.172 26.5625 664.172 28.9688V41.8125C664.172 44.2188 664.547 46.4062 665.297 48.375C666.078 50.3125 667.172 51.9844 668.578 53.3906C669.984 54.7656 671.656 55.8438 673.594 56.625C675.562 57.375 677.734 57.75 680.109 57.75H696.516C698.891 57.75 701.047 57.375 702.984 56.625C704.953 55.8438 706.641 54.7656 708.047 53.3906C709.453 51.9844 710.531 50.3125 711.281 48.375C712.062 46.4062 712.453 44.2188 712.453 41.8125V28.9688Z" fill="url(#paint0_linear_17_529)"/>
<defs>
<linearGradient id="paint0_linear_17_529" x1="361.5" y1="2" x2="361.5" y2="98" gradientUnits="userSpaceOnUse">
<stop offset="0.405" stop-color="#CCEFF4"/>
<stop offset="0.685" stop-color="#58DDE2"/>
<stop offset="1" stop-color="#5482B3"/>
</linearGradient>
</defs>
</svg>
