<svg width="20" height="20" viewBox="0 0 20 20" fill="none" xmlns="http://www.w3.org/2000/svg">
<path d="M19.1008 17.7742C19.1879 17.8613 19.257 17.9647 19.3042 18.0785C19.3513 18.1923 19.3756 18.3143 19.3756 18.4375C19.3756 18.5607 19.3513 18.6826 19.3042 18.7964C19.257 18.9102 19.1879 19.0137 19.1008 19.1008C19.0137 19.1879 18.9103 19.257 18.7965 19.3041C18.6827 19.3512 18.5607 19.3755 18.4375 19.3755C18.3144 19.3755 18.1924 19.3512 18.0786 19.3041C17.9648 19.257 17.8614 19.1879 17.7743 19.1008L10 11.3254L2.22581 19.1008C2.0499 19.2767 1.81131 19.3755 1.56253 19.3755C1.31375 19.3755 1.07516 19.2767 0.899252 19.1008C0.723339 18.9248 0.624512 18.6863 0.624512 18.4375C0.624512 18.1887 0.723339 17.9501 0.899252 17.7742L8.67464 9.99997L0.899252 2.22575C0.723339 2.04984 0.624512 1.81125 0.624512 1.56247C0.624512 1.31369 0.723339 1.0751 0.899252 0.899191C1.07516 0.723278 1.31375 0.624451 1.56253 0.624451C1.81131 0.624451 2.0499 0.723278 2.22581 0.899191L10 8.67458L17.7743 0.899191C17.9502 0.723278 18.1888 0.624451 18.4375 0.624451C18.6863 0.624451 18.9249 0.723278 19.1008 0.899191C19.2767 1.0751 19.3756 1.31369 19.3756 1.56247C19.3756 1.81125 19.2767 2.04984 19.1008 2.22575L11.3254 9.99997L19.1008 17.7742Z" fill="#9EB6B9"/>
</svg>
